<svg xmlns="http://www.w3.org/2000/svg" viewBox="0 0 64 64" id="calendar">
  <path d="M22.423 28.572h6.418v-4.928h-6.418Zm1-3.928h4.418v2.928h-4.418Zm-1 9.82h6.418v-4.928h-6.418Zm1-3.928h4.418v2.928h-4.418Zm-1 9.82h6.418v-4.928h-6.418Zm1-3.928h4.418v2.928h-4.418Zm8.786-7.856h6.418v-4.928h-6.418Zm1-3.928h4.418v2.928h-4.418Zm-1 9.82h6.418v-4.928h-6.418Zm1-3.928h4.418v2.928h-4.418Zm-1 9.82h6.418v-4.928h-6.418Zm1-3.928h4.418v2.928h-4.418Zm8.602-7.856h6.418v-4.928H41.81Zm1-3.928h4.418v2.928H42.81Zm-1 9.82h6.418v-4.928H41.81Zm1-3.928h4.418v2.928H42.81Zm-1 9.82h6.418v-4.928H41.81Zm1-3.928h4.418v2.928H42.81Zm10.819 7.34h.926v1h-.926Zm-1.946 0h.926v1h-.926Zm1.946-1.857h.926v1h-.926Zm-1.946 0h.926v1h-.926Zm-1.538-22.06h.936v1h-.936Zm-1.966 0h.936v1h-.936ZM13.156 31.866h1v.927h-1Zm0 1.946h1v.926h-1ZM57.5 13.814h-7.972v-3.173h-3.941v3.173H27.16v-3.173h-3.942v3.173H13.156v2.941h-3.095v3.097H6.5v33.507h44.344v-3.096h3.56v-2.941H57.5Zm-10.913-2.173h1.941v5.347h-1.941Zm-22.369 0h1.942v5.347h-1.942Zm25.626 40.718H7.5V20.852h2.56v29.411h39.784Zm-35.688-6.037v-10.51h-1v11.51h40.248v1.941H11.061V17.755h2.095v13.09h1v-9.993h32.938v-1H14.156v-5.038h9.062v3.174h3.942v-3.174h18.427v3.174h3.941v-3.174H56.5v5.038h-4.388v1H56.5v25.47Z"></path>
</svg>
