<svg xmlns="http://www.w3.org/2000/svg" viewBox="0 0 64 64" id="calendar">
  <path d="M60.2 5.2h-7.6V3.1c0-1.7-1.4-3-3-3h-.2c-1.7 0-3 1.4-3 3v2.1H17.7V3.1c0-1.7-1.4-3-3-3h-.2c-1.7 0-3 1.4-3 3v2.1H3.8C1.7 5.2 0 7 0 9.1v51.1C0 62.3 1.7 64 3.8 64h56.4c2.1 0 3.8-1.7 3.8-3.8V9.1c0-2.1-1.7-3.9-3.8-3.9zM49.4 2h.2c.6 0 1.1.5 1.1 1.1v6.2c0 .6-.5 1.1-1.1 1.1h-.2c-.6 0-1.1-.5-1.1-1.1V3.1c0-.6.5-1.1 1.1-1.1zm-35 0h.2c.6 0 1.1.5 1.1 1.1v6.2c0 .6-.5 1.1-1.1 1.1h-.2c-.6 0-1.1-.5-1.1-1.1V3.1c0-.6.5-1.1 1.1-1.1zM3.8 7.2h7.6v2.1c0 1.7 1.4 3 3 3h.2c1.7 0 3-1.4 3-3V7.2h28.7v2.1c0 1.7 1.4 3 3 3h.2c1.7 0 3-1.4 3-3V7.2h7.6c1 0 1.9.8 1.9 1.9v8.4H1.9V9.1c0-1.1.9-1.9 1.9-1.9zM60.2 62H3.8c-1 0-1.9-.8-1.9-1.9V19.4H62v40.8c.1.9-.8 1.8-1.8 1.8z"></path>
  <path d="M32 23.1c-2.7 0-4.8 2.2-4.8 4.8s2.2 4.8 4.8 4.8c2.7 0 4.8-2.2 4.8-4.8s-2.1-4.8-4.8-4.8zm0 7.8c-1.6 0-2.9-1.3-2.9-2.9 0-1.6 1.3-2.9 2.9-2.9 1.6 0 2.9 1.3 2.9 2.9 0 1.5-1.3 2.9-2.9 2.9zm19.2-7.8c-2.7 0-4.8 2.2-4.8 4.8s2.2 4.8 4.8 4.8c2.7 0 4.8-2.2 4.8-4.8s-2.1-4.8-4.8-4.8zm0 7.8c-1.6 0-2.9-1.3-2.9-2.9 0-1.6 1.3-2.9 2.9-2.9 1.6 0 2.9 1.3 2.9 2.9 0 1.5-1.3 2.9-2.9 2.9zm-38.4 4.9C10.1 35.8 8 38 8 40.7s2.2 4.8 4.8 4.8 4.8-2.2 4.8-4.8c.1-2.7-2.1-4.9-4.8-4.9zm0 7.8c-1.6 0-2.9-1.3-2.9-2.9 0-1.6 1.3-2.9 2.9-2.9 1.6 0 2.9 1.3 2.9 2.9 0 1.6-1.3 2.9-2.9 2.9zM32 35.8c-2.7 0-4.8 2.2-4.8 4.8 0 2.7 2.2 4.8 4.8 4.8 2.7 0 4.8-2.2 4.8-4.8 0-2.6-2.1-4.8-4.8-4.8zm0 7.8c-1.6 0-2.9-1.3-2.9-2.9 0-1.6 1.3-2.9 2.9-2.9 1.6 0 2.9 1.3 2.9 2.9 0 1.6-1.3 2.9-2.9 2.9zm19.2-7.8c-2.7 0-4.8 2.2-4.8 4.8 0 2.7 2.2 4.8 4.8 4.8 2.7 0 4.8-2.2 4.8-4.8 0-2.6-2.1-4.8-4.8-4.8zm0 7.8c-1.6 0-2.9-1.3-2.9-2.9 0-1.6 1.3-2.9 2.9-2.9 1.6 0 2.9 1.3 2.9 2.9 0 1.6-1.3 2.9-2.9 2.9zm-38.4 4.9c-2.7 0-4.8 2.2-4.8 4.8 0 2.7 2.2 4.8 4.8 4.8s4.8-2.2 4.8-4.8c.1-2.6-2.1-4.8-4.8-4.8zm0 7.8c-1.6 0-2.9-1.3-2.9-2.9 0-1.6 1.3-2.9 2.9-2.9 1.6 0 2.9 1.3 2.9 2.9 0 1.6-1.3 2.9-2.9 2.9zM32 48.5c-2.7 0-4.8 2.2-4.8 4.8 0 2.7 2.2 4.8 4.8 4.8 2.7 0 4.8-2.2 4.8-4.8 0-2.6-2.1-4.8-4.8-4.8zm0 7.8c-1.6 0-2.9-1.3-2.9-2.9 0-1.6 1.3-2.9 2.9-2.9 1.6 0 2.9 1.3 2.9 2.9 0 1.6-1.3 2.9-2.9 2.9zm19.2-7.8c-2.7 0-4.8 2.2-4.8 4.8 0 2.7 2.2 4.8 4.8 4.8 2.7 0 4.8-2.2 4.8-4.8 0-2.6-2.1-4.8-4.8-4.8zm0 7.8c-1.6 0-2.9-1.3-2.9-2.9 0-1.6 1.3-2.9 2.9-2.9 1.6 0 2.9 1.3 2.9 2.9 0 1.6-1.3 2.9-2.9 2.9z"></path>
  <path d="m32.3 39.3-.8.7c-.4-.2-.9-.2-1.2.1-.4.4-.4 1 0 1.4l.5.5c.2.2.4.3.7.3s.5-.1.7-.3l1.4-1.4c.4-.4.4-1 0-1.4s-.9-.3-1.3.1z"></path>
</svg>
