<svg xmlns="http://www.w3.org/2000/svg" fill-rule="evenodd" stroke-linejoin="round" stroke-miterlimit="2" clip-rule="evenodd" viewBox="0 0 129 128" id="hair-dryer">
  <rect width="128" height="128" x=".656" fill="none"></rect>
  <path d="M71.27 125.954c.084-.036.165-.078.245-.125 0 0 0 0 0 0 3.576-2.064 4.802-6.636 2.739-10.212-7.188-12.46-26.628-46.158-35.067-60.785-1.325-2.298-3.51-3.975-6.072-4.662-2.562-.687-5.292-.328-7.59.998l-20.392 11.774c-2.87 1.657-3.853 5.326-2.196 8.196 4.522 7.833 15.491 26.832 20.013 34.665 1.657 2.87 5.327 3.853 8.196 2.196l11.28-6.512c2.533-1.463 5.75-.884 7.616 1.363 1.574 2.088 3.429 4.711 5.228 7.833 1.811 3.142 3.846 7.801 5.367 11.496.003.008.007.016.01.025.86 2.012 2.541 3.56 4.617 4.252 1.99.663 4.161.479 6.006-.502zm-1.64-3.659c-.041.019-.082.041-.122.064-.904.522-1.989.632-2.979.302-.984-.328-1.782-1.058-2.195-2.009-1.589-3.857-3.715-8.697-5.598-11.966-1.903-3.302-3.863-6.075-5.513-8.263-.015-.02-.031-.04-.047-.059-3.1-3.803-8.502-4.794-12.751-2.341.001 0-11.279 6.512-11.279 6.512-.956.552-2.179.225-2.732-.732 0 0-20.013-34.665-20.013-34.665-.553-.956-.225-2.18.732-2.732l20.392-11.773c1.379-.796 3.017-1.012 4.554-.6 1.537.413 2.848 1.419 3.643 2.797 8.439 14.628 27.879 48.326 35.067 60.785.937 1.625.415 3.69-1.159 4.68zM101.231 47.555c0 0 17.191 29.776 23.144 40.087.552.956.224 2.179-.732 2.732 0 0-8.307 4.796-8.307 4.796-.957.552-2.18.224-2.732-.732 0 0-26.167-45.323-26.167-45.323-.552-.956-1.777-1.284-2.732-.732-.956.552-1.284 1.776-.733 2.732 0 0 19.736 34.183 26.167 45.323 1.657 2.869 5.327 3.853 8.197 2.196 2.485-1.435 5.821-3.361 8.307-4.796 2.869-1.657 3.853-5.327 2.196-8.196-5.953-10.311-23.144-40.087-23.144-40.087-.552-.956-1.776-1.284-2.732-.732-.956.552-1.284 1.776-.732 2.732z"></path>
  <path d="M108.622 91.542l15.236-8.797c.956-.552 1.284-1.776.732-2.732-.552-.956-1.776-1.284-2.732-.732l-15.236 8.797c-.956.551-1.284 1.776-.732 2.732.552.956 1.776 1.284 2.732.732zM2.669 5.023l2.1 0c2.143 0 4.124 1.144 5.196 3 .917 1.589 1.97 3.412 2.887 5 1.786 3.094 5.087 5 8.66 5 2.53 0 5.157 0 5.157 0 1.103 0 2-.896 2-2 0-1.103-.897-2-2-2l-5.157 0c-2.144 0-4.124-1.143-5.196-3-.917-1.588-1.97-3.411-2.887-5-1.786-3.094-5.088-5-8.66-5-1.169 0-2.1 0-2.1 0-1.104 0-2 .897-2 2 0 1.104.896 2 2 2zM2.669 26.023l2.1 0c2.143 0 4.124 1.144 5.196 3 .917 1.589 1.97 3.412 2.887 5 1.786 3.094 5.087 5 8.66 5 2.53 0 5.157 0 5.157 0 1.103 0 2-.896 2-2 0-1.103-.897-2-2-2l-5.157 0c-2.144 0-4.124-1.143-5.196-3-.917-1.588-1.97-3.411-2.887-5-1.786-3.094-5.088-5-8.66-5-1.169 0-2.1 0-2.1 0-1.104 0-2 .897-2 2 0 1.104.896 2 2 2z"></path>
  <path d="M2.669 15.523l2.1 0c2.143 0 4.124 1.144 5.196 3 .917 1.589 1.97 3.412 2.887 5 1.786 3.094 5.087 5 8.66 5 2.53 0 5.157 0 5.157 0 1.103 0 2-.896 2-2 0-1.103-.897-2-2-2l-5.157 0c-2.144 0-4.124-1.143-5.196-3-.917-1.588-1.97-3.411-2.887-5-1.786-3.094-5.088-5-8.66-5-1.169 0-2.1 0-2.1 0-1.104 0-2 .897-2 2 0 1.104.896 2 2 2zM119.685 94.282c0 0 1.036 7.93-.618 15.515-1.023 4.686-3.033 9.308-7.293 11.438-6.003 3.001-15.374 2.524-19.945-3.541-3.139-4.165-3.854-10.834-.14-20.57 5.051-13.243-1.139-22.8-7.568-27.21-3.649-2.502-14.535-5.369-21.928.801-.848.707-.961 1.97-.254 2.817.707.848 1.969.961 2.817.254 5.766-4.812 14.257-2.525 17.102-.573 5.303 3.637 10.26 11.561 6.093 22.485-4.407 11.555-3.041 19.461.684 24.403 5.725 7.596 17.41 8.471 24.928 4.711 5.34-2.67 8.13-8.288 9.412-14.162 1.801-8.255.677-16.885.677-16.885-.143-1.095-1.148-1.867-2.242-1.725-1.095.143-1.867 1.148-1.725 2.242zM23.308 61.686l-17.206 9.934c-.956.552-1.284 1.776-.732 2.732.551.956 1.776 1.284 2.732.732l17.206-9.934c.956-.551 1.284-1.776.732-2.732-.552-.956-1.776-1.284-2.732-.732zM39.308 89.399l-17.206 9.934c-.956.552-1.284 1.776-.732 2.732.551.956 1.776 1.284 2.732.732l17.206-9.934c.956-.552 1.284-1.776.732-2.732-.552-.956-1.776-1.284-2.732-.732zM30.384 75.543l-16.86 9.734c-.956.552-1.284 1.776-.732 2.732.552.956 1.776 1.284 2.732.732l16.86-9.734c.956-.552 1.284-1.776.732-2.732-.552-.956-1.776-1.284-2.732-.732zM34.571 82.471l-16.904 9.759c-.956.552-1.284 1.776-.732 2.732.552.956 1.776 1.284 2.732.732l16.904-9.759c.956-.552 1.284-1.776.732-2.732-.552-.956-1.776-1.284-2.732-.732zM26.884 68.615l-17.206 9.933c-.956.552-1.284 1.777-.732 2.733.552.955 1.776 1.283 2.732.732l17.206-9.934c.956-.552 1.284-1.776.732-2.732-.552-.956-1.776-1.284-2.732-.732zM124.127 19.988c0-2.373-1.399-4.524-3.569-5.485-4.537-2.011-14.501-6.427-20.402-9.042-3.317-1.47-6.906-2.23-10.535-2.23l-10.949 0c-4.642 0-9.199 1.243-13.199 3.6-.002.001-.004.003-.005.004-2.733 1.623-6.044 3.4-8.425 3.943-4.3.981-13.824 1.107-19.185 1.109-.008 0-.016 0-.024 0-3.281.04-5.921 2.711-5.921 5.993-.007 4.809-.007 12.814-.007 17.579 0 0 0 0 0 0 0 3.227 2.551 5.875 5.775 5.996.009 0 .017.001.025.001 5.344.134 14.961.512 19.289 1.613 2.359.6 5.612 2.421 8.327 4.091.001 0 .001.001.002.001 4.088 2.507 8.791 3.834 13.587 3.834 3.873.009 8.518.009 11.764.009 2.888 0 5.755-.481 8.485-1.424 5.625-1.942 16.021-5.531 20.925-7.224 2.419-.835 4.042-3.113 4.042-5.672l0-16.696zm-4 0l0 16.696c0 .853-.541 1.612-1.347 1.891 0 0-20.925 7.224-20.925 7.224-2.31.798-4.737 1.205-7.18 1.205-3.243 0-7.884 0-11.76-.009-.001 0-.003 0-.004 0-4.058 0-8.037-1.123-11.496-3.244-3.065-1.884-6.769-3.88-9.433-4.558-4.523-1.152-14.565-1.594-20.158-1.735-1.071-.045-1.918-.926-1.918-1.999 0-4.764 0-12.766.007-17.576 0-.001 0-.002 0-.003 0-1.087.87-1.972 1.954-1.993 5.622-.002 15.57-.184 20.066-1.209 2.697-.616 6.476-2.563 9.572-4.401 3.384-1.994 7.24-3.046 11.167-3.046 0 0 10.949 0 10.949 0 3.071 0 6.107.643 8.914 1.887 5.902 2.615 15.865 7.031 20.402 9.042.724.32 1.19 1.037 1.19 1.828z"></path>
  <path d="M92.218 6.218l0 42.048c0 1.104.896 2 2 2 1.104 0 2-.896 2-2l0-42.048c0-1.104-.896-2-2-2-1.104 0-2 .896-2 2zM110.152 21.788l9.852 2c1.082.22 2.138-.48 2.358-1.562.22-1.081-.48-2.138-1.562-2.358l-9.852-2c-1.081-.219-2.138.481-2.358 1.563-.219 1.081.481 2.138 1.562 2.357zM110.948 37.966l9.852-2c1.082-.22 1.782-1.276 1.562-2.358-.22-1.082-1.276-1.782-2.358-1.562l-9.852 2c-1.081.219-1.781 1.276-1.562 2.358.22 1.081 1.277 1.781 2.358 1.562zM110.55 29.917l9.852 0c1.104 0 2-.896 2-2 0-1.104-.896-2-2-2l-9.852 0c-1.103 0-2 .896-2 2 0 1.104.897 2 2 2z"></path>
</svg>
